<?xml version="1.0" encoding="utf-8"?>
<!-- Generator: Adobe Illustrator 23.1.1, SVG Export Plug-In . SVG Version: 6.00 Build 0)  -->
<svg version="1.1" id="Layer_1" xmlns="http://www.w3.org/2000/svg" xmlns:xlink="http://www.w3.org/1999/xlink" x="0px" y="0px"
	 viewBox="0 0 48 48" style="enable-background:new 0 0 48 48;" xml:space="preserve">
<style type="text/css">
	.st0{fill:#6D6E70;}
</style>
<path class="st0" d="M44.9,17.13c-0.66,0-1.28,0.18-1.81,0.5c-0.44-1.49-1.82-2.57-3.45-2.57c-1.98,0-3.6,1.61-3.6,3.6v2.59H12.95
	v-2.59c0-1.98-1.61-3.6-3.6-3.6c-1.63,0-3,1.09-3.45,2.57c-0.53-0.31-1.15-0.5-1.81-0.5c-1.98,0-3.6,1.61-3.6,3.6v6.99
	c0,1.98,1.61,3.6,3.6,3.6c0.66,0,1.28-0.18,1.81-0.5c0.44,1.49,1.82,2.57,3.45,2.57c1.98,0,3.6-1.61,3.6-3.6v-2.59h23.09v2.59
	c0,1.98,1.61,3.6,3.6,3.6c1.63,0,3-1.09,3.45-2.57c0.53,0.31,1.15,0.5,1.81,0.5h0c1.98,0,3.6-1.61,3.6-3.6v-6.99
	C48.5,18.75,46.88,17.13,44.9,17.13z M4.1,29.38c-0.92,0-1.66-0.75-1.66-1.66v-6.99c0-0.92,0.75-1.66,1.66-1.66s1.66,0.75,1.66,1.66
	v6.99C5.76,28.64,5.01,29.38,4.1,29.38z M11.02,29.8c0,0.92-0.75,1.66-1.66,1.66c-0.92,0-1.66-0.75-1.66-1.66v-2.08v-6.99v-2.08
	c0-0.92,0.75-1.66,1.66-1.66c0.92,0,1.66,0.75,1.66,1.66v3.56v4.03V29.8z M12.95,25.27v-2.09h23.09v2.09H12.95z M41.3,29.8
	c0,0.92-0.75,1.66-1.66,1.66c-0.92,0-1.66-0.75-1.66-1.66v-3.56v-4.03v-3.56c0-0.92,0.75-1.66,1.66-1.66c0.92,0,1.66,0.75,1.66,1.66
	v2.08v6.99V29.8z M46.56,27.72c0,0.92-0.75,1.66-1.66,1.66c-0.92,0-1.66-0.75-1.66-1.66v-6.99c0-0.92,0.75-1.66,1.66-1.66
	c0.92,0,1.66,0.75,1.66,1.66V27.72z"/>
</svg>
